<svg id="chart" width="640" height="334" viewBox="0 0 640 334" xmlns="http://www.w3.org/2000/svg">
    <path
        d="M 0,329.8535404812776 C 8.6,327.4946558058806 25.8,323.8748898363623 43,318.0591171042925 C 60.2,312.24334437222274 68.8,304.6434690288315 86,300.77467682092885 C 103.2,296.9058846130262 111.8,307.18379969336917 129,298.7151560647793 C 146.2,290.24651243618945 154.8,270.38654245316997 172,258.43145867797944 C 189.2,246.4763749027889 197.8,241.08887046610414 215,238.93973718882668 C 232.2,236.79060391154923 240.8,258.2127296198566 258,247.6857922915921 C 275.2,237.1588549633276 283.8,188.00178328961258 301,186.30505054750427 C 318.2,184.60831780539596 326.8,238.17631181181721 344,239.20212858105054 C 361.2,240.22794535028387 369.8,205.75367832373752 387,191.43413439367092 C 404.2,177.11459046360432 412.8,177.54866290284485 430,167.60440893071763 C 447.2,157.6601549585904 455.8,142.52808476514664 473,141.71286453303475 C 490.2,140.89764430092288 498.8,161.13852843412693 516,163.52830777015822 C 533.2,165.91808710618955 541.8,153.04489402517868 559,153.6617612131913 C 576.2,154.27862840120395 584.8,190.39971274435055 602,166.6126437102214 C 619.2,142.82557467609226 636.4,61.10366157608078 645,34.72641604254562,L 640 334,L 0 334Z"
        fill="#2e34491a" />
    <path
        d="M 0,329.8535404812776 C 8.6,327.4946558058806 25.8,323.8748898363623 43,318.0591171042925 C 60.2,312.24334437222274 68.8,304.6434690288315 86,300.77467682092885 C 103.2,296.9058846130262 111.8,307.18379969336917 129,298.7151560647793 C 146.2,290.24651243618945 154.8,270.38654245316997 172,258.43145867797944 C 189.2,246.4763749027889 197.8,241.08887046610414 215,238.93973718882668 C 232.2,236.79060391154923 240.8,258.2127296198566 258,247.6857922915921 C 275.2,237.1588549633276 283.8,188.00178328961258 301,186.30505054750427 C 318.2,184.60831780539596 326.8,238.17631181181721 344,239.20212858105054 C 361.2,240.22794535028387 369.8,205.75367832373752 387,191.43413439367092 C 404.2,177.11459046360432 412.8,177.54866290284485 430,167.60440893071763 C 447.2,157.6601549585904 455.8,142.52808476514664 473,141.71286453303475 C 490.2,140.89764430092288 498.8,161.13852843412693 516,163.52830777015822 C 533.2,165.91808710618955 541.8,153.04489402517868 559,153.6617612131913 C 576.2,154.27862840120395 584.8,190.39971274435055 602,166.6126437102214 C 619.2,142.82557467609226 636.4,61.10366157608078 645,34.72641604254562"
        fill="none" stroke="#2e3449" stroke-width="4px" />
    <g>
        <circle cx="0" cy="329.8535404812776" r="8" fill="#2e3449" />,
        <circle cx="43" cy="318.0591171042925" r="8" fill="#2e3449" />,
        <circle cx="86" cy="300.77467682092885" r="8" fill="#2e3449" />,
        <circle cx="129" cy="298.7151560647793" r="8" fill="#2e3449" />,
        <circle cx="172" cy="258.43145867797944" r="8" fill="#2e3449" />,
        <circle cx="215" cy="238.93973718882668" r="8" fill="#2e3449" />,
        <circle cx="258" cy="247.6857922915921" r="8" fill="#2e3449" />,
        <circle cx="301" cy="186.30505054750427" r="8" fill="#2e3449" />,
        <circle cx="344" cy="239.20212858105054" r="8" fill="#2e3449" />,
        <circle cx="387" cy="191.43413439367092" r="8" fill="#2e3449" />,
        <circle cx="430" cy="167.60440893071763" r="8" fill="#2e3449" />,
        <circle cx="473" cy="141.71286453303475" r="8" fill="#2e3449" />,
        <circle cx="516" cy="163.52830777015822" r="8" fill="#2e3449" />,
        <circle cx="559" cy="153.6617612131913" r="8" fill="#2e3449" />,
        <circle cx="602" cy="166.6126437102214" r="8" fill="#2e3449" />,
        <circle cx="645" cy="34.72641604254562" r="8" fill="#2e3449" />
    </g>
</svg>